<svg width="553" height="56" viewBox="0 0 553 56" fill="none" xmlns="http://www.w3.org/2000/svg">
<path d="M53.6995 53.7623V41.8219C45.1154 41.8219 39.1129 41.7574 33.8849 41.4346L33.304 41.3701L33.4331 40.8538C33.6268 40.0147 33.6913 39.1111 33.7558 38.143V37.6912H51.8923V14.2622H34.5304V12.2613H53.6995V0.579102H0V12.2613H19.0401V14.2622H1.41994V37.6912H19.5564L19.4274 38.3366C19.2337 39.1111 18.8465 39.8211 18.3947 40.402L18.1365 40.5956L17.8783 40.531C17.1684 40.3374 16.652 40.0147 16.3293 39.6274H2.32354C2.83988 40.531 3.42076 41.4992 4.06619 42.3382L4.64708 43.1128H0V53.7623C9.55232 53.7623 16.7166 52.9878 21.8154 51.5678H21.9445H22.0736C29.5606 52.9878 39.6292 53.6978 53.6995 53.7623ZM33.2395 21.1037H38.4029V23.7499H33.2395V21.1037ZM33.2395 28.1388H38.4029V30.7851H33.2395V28.1388ZM20.331 30.7851H15.2966V28.1388H20.331V30.7851ZM20.331 23.7499H15.2966V21.1037H20.331V23.7499Z" fill="#6386D1"/>
<path d="M112.754 20.7854H106.299L107.397 19.9464C109.268 18.4619 111.527 15.622 112.108 13.363V0.325375H87.1302V13.6857H97.1989L96.3598 14.5248C95.069 15.8156 93.7136 16.5256 92.1646 16.7192V20.7854H85.194V3.2298H76.5452V0.196289H61.1841V3.2298H58.7314V17.0419H60.9904V17.5583C60.6032 26.8524 59.9578 31.3059 58.9251 35.7593L62.2813 37.8892L61.2486 38.2119C60.4741 38.4701 59.635 38.6637 58.7314 38.8574V54.2185C65.7021 52.8631 71.1882 50.4751 75.5125 46.7316L75.7707 46.4734L86.2266 53.1213V37.5665L85.2585 36.9856H85.0649V36.8566L82.6768 35.5012L82.8059 35.1139C84.0967 31.9513 84.8712 28.4015 85.1294 24.658L86.0976 24.7225V36.082H92.1646V37.9538C92.1646 38.7928 91.7128 39.2446 90.8737 39.2446H88.292V53.9604H96.6826C103.008 53.9604 107.203 52.0241 107.203 42.4072V36.0175H112.754V20.7854ZM74.609 19.2364C74.609 23.238 74.0281 26.5297 72.8018 29.176L72.6081 29.6278L71.1882 28.8533L71.2527 28.5305C71.7045 25.4325 72.0272 22.399 72.2209 17.4937V17.0419H74.609V19.2364Z" fill="#6386D1"/>
<path d="M170.842 2.06323H157.546L159.159 1.22418L159.224 0.191496H146.574C146.574 5.80671 146.122 9.55019 145.218 12.0028L144.25 14.52V3.54772H137.989L138.828 0.126953H124.952L124.177 3.54772H118.175V53.3102H144.25V33.5601L144.508 33.431C144.831 33.2374 145.154 33.1083 145.541 32.8501L146.251 32.3983L146.509 36.9163H156.449L155.222 23.2332H153.415L153.738 22.5878C154.512 20.7161 155.222 18.8443 155.803 17.0371L155.932 16.7144H157.869V36.7227C157.869 38.4008 156.771 39.4335 155.029 39.4335H150.963V53.6974H158.385C168.066 53.6974 170.842 50.4057 170.842 38.9171V2.06323ZM132.568 41.2407H129.857V34.0764H132.568V41.2407ZM132.568 22.7814H129.857V15.6817H132.568V22.7814Z" fill="#6386D1"/>
<path d="M177.82 26.7881V53.2506H228.228V26.7881H177.82ZM214.093 41.4393H192.02V38.6639H214.093V41.4393Z" fill="#6386D1"/>
<path d="M176.333 11.103V24.5279H198.536C204.538 24.5279 209.702 24.0116 213.832 22.9789L214.284 22.8498L214.736 24.5279H230.162L225.063 4.19696H209.637L211.057 9.68309L210.605 9.81218C207.184 10.7158 203.312 11.103 198.536 11.103H196.922L202.15 0.195312H184.853L179.947 11.103H176.333Z" fill="#6386D1"/>
<path d="M273.532 0.125977H263.851V2.70769H273.532V0.125977Z" fill="#6386D1"/>
<path d="M263.851 19.748V26.2023H273.532V19.748H263.851ZM269.982 24.3306H267.336V21.878H269.982V24.3306Z" fill="#6386D1"/>
<path d="M288.314 39.8863H262.884V37.9501H288.314V28.1396H285.797V26.2033H289.089L288.701 19.749H285.732V17.7482H288.637L287.862 8.64766H284.442L288.895 3.03244H282.634L285.474 0.128019H277.729L275.212 2.58064V4.90418H262.626V8.64766H275.212V9.03491H277.536L274.954 12.0039V17.8773H278.052V19.8781H275.147C275.147 22.7825 275.083 24.8479 274.825 26.3324H278.052V28.2686H259.334V26.3324H262.303L261.787 19.8781H259.334V17.7482H262.626L261.658 8.64766H258.56L261.658 4.83964L262.626 3.67787L263.207 2.9679H256.495L259.27 0.0634766H251.396L248.814 2.5161V8.97037H251.073L248.814 11.423V17.8127H251.718V19.8135H248.814C248.814 22.7825 248.685 24.8479 248.427 26.2678H251.654V28.2041H248.491V32.2703H274.889V34.2066H248.62V43.888H274.889V44.8561C274.889 45.5015 274.502 45.8888 273.792 45.8888H248.62V53.763H281.989C285.991 53.763 288.314 51.5686 288.314 47.696V39.8863ZM283.732 8.51857L283.99 11.9393H280.827L283.732 8.51857ZM254.3 11.9393L257.334 8.58312L257.592 11.9393H254.3Z" fill="#6386D1"/>
<path d="M273.532 15.166H263.851V17.7477H273.532V15.166Z" fill="#6386D1"/>
<path d="M246.814 30.1406V17.103L234.938 15.3604V28.398L246.814 30.1406Z" fill="#6386D1"/>
<path d="M246.814 15.1005V2.12742L234.938 0.384766V13.4224L246.814 15.1005Z" fill="#6386D1"/>
<path d="M235.582 31.8174C235.517 34.98 234.937 48.9857 234.227 53.5037H245.651C246.361 50.2766 247.006 40.6597 247.006 31.8174H235.582Z" fill="#6386D1"/>
<path d="M273.532 10.583H263.851V13.1647H273.532V10.583Z" fill="#6386D1"/>
<path d="M314.321 31.2373H297.476V47.1148H303.478V47.6312C303.478 49.8256 302.058 53.1173 299.605 55.5054H311.03C313.03 53.6982 314.386 50.5356 314.386 47.6312V31.2373H314.321Z" fill="#6386D1"/>
<path d="M376.8 16.1992H323.036V34.9811H376.8V16.1992Z" fill="#6386D1"/>
<path d="M419.205 16.1982H398.293V25.6215H419.205V16.1982Z" fill="#6386D1"/>
<path d="M435.858 0.901367H382.094V53.8909H396.293V14.1972H421.788V38.8525C421.788 39.6915 421.271 40.2724 420.497 40.2724H419.206V27.6221H398.294V51.9547H418.754V53.8264H428.5C432.953 53.8264 435.858 50.4702 435.858 45.2422V0.901367ZM410.686 42.1442H406.62V37.368H410.686V42.1442Z" fill="#6386D1"/>
<path d="M487.619 43.3706V35.4964H494.202V21.4261H487.619V19.1025H494.202V2.19232H475.291V0.126953H459.091V2.19232H440.632V19.1025H455.993V15.4236H478.841V17.7471H471.806V21.4261H440.567V35.4964H445.795L448.958 48.4049H462.899L459.737 35.4964H471.741V40.2725C471.741 41.1761 471.225 41.757 470.451 41.757H463.351V53.762H478.389C484.715 53.762 487.619 50.4057 487.619 43.3706Z" fill="#6386D1"/>
<path d="M518.792 28.2061H500.269V33.8858H518.792V28.2061Z" fill="#6386D1"/>
<path d="M518.792 20.7178H500.269V26.2684H518.792V20.7178Z" fill="#6386D1"/>
<path d="M500.269 35.8838V53.8912H518.792V35.8838H500.269ZM510.983 46.4688H508.143V43.3707H510.983V46.4688Z" fill="#6386D1"/>
<path d="M520.731 8.06784H499.109V18.7174H520.731V29.496C520.989 29.4315 521.248 29.3024 521.506 29.2379L522.474 28.9151V32.7232H552.938V29.6251H549.775V27.6888H551.776V24.5262H549.775V22.59H551.776V19.4274H549.775V17.4911H552.938V13.7476H549.517L550.292 12.2631H539.578L538.739 13.7476H534.737L534.801 13.2313C534.866 12.9085 534.931 12.5858 534.931 12.2631H523.829C523.507 13.6185 522.538 15.2966 520.602 16.0711L519.957 16.3293V9.22961H522.861V10.3268H536.286V9.29415H538.416V10.3914H551.583V9.29415H552.873V1.74265H551.583V0H538.416V1.74265H536.286V0H522.861V1.74265H520.667V8.06784H520.731ZM535.253 17.2974H538.48V19.621H535.253V17.2974ZM535.253 22.3963H538.48V24.7199H535.253V22.3963ZM535.253 27.4952H538.48V29.8187H535.253V27.4952Z" fill="#6386D1"/>
<path d="M518.792 0.196289H500.269V6.13422H518.792V0.196289Z" fill="#6386D1"/>
<path d="M536.348 52.3449H536.478C540.608 53.2485 545.901 53.6357 553 53.7003V45.5679C552.936 45.5679 552.807 45.5679 552.742 45.5679C552.484 45.5679 552.226 45.5679 551.968 45.5679H551.064L551.581 44.7934C551.968 44.2125 552.291 43.6961 552.484 43.2443V34.6602H521.31V42.2762H540.027L538.349 43.1798C537.446 43.6316 536.348 44.0834 534.993 44.4706H534.864C534.735 44.4706 534.606 44.4061 534.541 44.3416H523.504C523.634 44.4706 523.698 44.6643 523.763 44.7934L524.473 45.8906H520.987V53.7648C527.119 53.7648 532.218 53.313 536.478 52.4094L536.348 52.3449Z" fill="#6386D1"/>
</svg>
