<svg width="24" height="21" viewBox="0 0 24 21" fill="none" xmlns="http://www.w3.org/2000/svg">
<path d="M8.16132 9.44039C10.0767 9.44039 11.6381 7.34602 11.6381 4.7728C11.6381 2.20375 10.0767 0.109375 8.16132 0.109375C6.24599 0.109375 4.68457 2.20375 4.68457 4.77697C4.68457 7.35018 6.24599 9.44039 8.16132 9.44039Z" fill="#3670C7"/>
<path d="M18.4699 13.979C18.3992 13.8832 18.3284 13.7916 18.2951 13.7125C17.5164 12.047 15.3887 10.0858 11.937 10.04H11.8037C8.40609 10.04 6.2909 11.8971 5.44149 13.6375C5.41234 13.6958 5.34988 13.7749 5.2791 13.8541C5.19999 13.9498 5.11671 14.0456 5.05009 14.1538C4.33392 15.2656 3.97167 16.5189 4.0258 17.6806C4.07993 18.913 4.59624 19.904 5.4748 20.4703C5.82872 20.6993 6.21178 20.8117 6.61567 20.8117C7.44426 20.8117 8.20207 20.3454 9.08063 19.8041C9.63857 19.4585 10.2173 19.1046 10.8586 18.8381C10.9293 18.8131 11.225 18.7798 11.708 18.7798C12.2826 18.7798 12.6906 18.8298 12.7781 18.8589C13.4026 19.1337 13.9522 19.496 14.4852 19.8457C15.3013 20.3829 16.0716 20.8908 16.9044 20.8908C17.2624 20.8908 17.6122 20.7951 17.937 20.6119C19.7441 19.5834 20.0896 16.7687 18.7031 14.3329C18.6365 14.2038 18.5532 14.0914 18.4699 13.979Z" fill="#3670C7"/>
<path d="M15.5519 9.44039C17.4673 9.44039 19.0287 7.34602 19.0287 4.7728C19.0287 2.20375 17.4714 0.109375 15.5519 0.109375C13.6366 0.109375 12.0752 2.20375 12.0752 4.77697C12.0752 7.35018 13.6366 9.44039 15.5519 9.44039Z" fill="#3670C7"/>
<path d="M21.2603 7.0459C19.7238 7.0459 18.5205 8.64062 18.5205 10.6725C18.5205 12.7045 19.7238 14.2992 21.2603 14.2992C22.7967 14.2992 24 12.7045 24 10.6725C24 8.63646 22.7967 7.0459 21.2603 7.0459Z" fill="#3670C7"/>
<path d="M5.47953 10.6725C5.47953 8.63646 4.2762 7.0459 2.73976 7.0459C1.20333 7.0459 0 8.63646 0 10.6725C0 12.7045 1.20333 14.2992 2.73976 14.2992C4.2762 14.2992 5.47953 12.7045 5.47953 10.6725Z" fill="#3670C7"/>
</svg>
