<svg width="532" height="704" viewBox="0 0 532 704" fill="none" xmlns="http://www.w3.org/2000/svg">
<path d="M628.758 171.773C579.82 233.281 493.816 311.491 372.191 311.491C235.483 311.491 152.528 228.142 113.537 175.146C70.5354 230.551 44.7021 299.928 44.7021 375.569C44.7021 447.837 68.289 514.323 107.921 568.604C144.184 516.411 228.263 424.229 372.191 424.229C498.629 424.229 586.88 508.863 634.695 571.334C675.451 516.732 700 448.961 700 375.569C699.84 298.483 673.204 227.821 628.758 171.773Z" fill="#3670C7" fill-opacity="0.1"/>
<path d="M148.355 136.604C189.592 187.833 262.118 249.984 372.19 249.984C469.265 249.984 541.952 189.118 589.607 130.661C531.843 79.1104 455.787 47.6338 372.351 47.6338C285.544 47.6338 207.082 81.5194 148.355 136.604Z" fill="#3670C7" fill-opacity="0.1"/>
<path d="M372.351 485.737C255.7 485.737 181.089 555.596 141.296 608.111C200.504 667.049 282.175 703.504 372.351 703.504C459.318 703.504 538.262 669.298 596.828 614.053C549.493 552.866 474.4 485.737 372.351 485.737Z" fill="#3670C7" fill-opacity="0.1"/>
<path d="M327.489 264.357C449.017 264.357 535.015 186.419 584.055 124.944C628.199 180.828 654.638 251.193 654.798 327.936C654.798 400.977 630.445 468.443 589.987 522.871C542.048 460.41 453.809 376.095 327.489 376.095C183.849 376.095 99.7289 467.759 63.21 520.108C23.8863 466.013 0.5 399.84 0.5 327.935C0.5 252.648 26.131 183.577 68.8253 128.341C108.023 181.422 191.01 264.357 327.489 264.357Z" stroke="#3670C7" stroke-opacity="0.4"/>
<path d="M327.488 201.85C217.885 201.85 145.57 140.115 104.334 89.0173C162.935 34.2027 241.143 0.5 327.648 0.5C410.785 0.5 486.582 31.7982 544.214 83.0825C496.591 141.38 424.135 201.85 327.488 201.85Z" stroke="#3670C7" stroke-opacity="0.4"/>
<path d="M327.649 655.37C237.768 655.37 156.349 619.099 97.2564 560.431C137.07 508.016 211.479 438.604 327.649 438.604C429.265 438.604 504.135 505.319 551.452 566.366C493.008 621.345 414.318 655.37 327.649 655.37Z" stroke="#3670C7" stroke-opacity="0.4"/>
</svg>
