<svg width="582" height="668" viewBox="0 0 582 668" fill="none" xmlns="http://www.w3.org/2000/svg">
<path d="M444.138 205.42V48.8092C444.138 21.771 422.339 0 395.266 0H289.61C262.537 0 240.738 21.771 240.738 48.8092V205.42H84.0999C57.0267 205.42 35.2275 227.191 35.2275 254.054V361.855C35.2275 388.894 57.0267 410.665 84.0999 410.665H240.914V567.1C240.914 593.962 262.713 615.909 289.786 615.909H395.442C422.339 615.909 444.314 594.138 444.314 567.1V410.665H601.128C628.201 410.665 650 388.894 650 361.855V254.054C650 227.016 628.201 205.244 601.128 205.244H444.138V205.42Z" fill="#3670C7" fill-opacity="0.1"/>
<path d="M205.51 257.057H206.01V256.557V99.9459C206.01 73.1845 227.585 51.6367 254.383 51.6367H360.038C386.836 51.6367 408.411 73.1845 408.411 99.9459V255.881V256.381V256.557H408.911V256.881H565.9C592.698 256.881 614.273 278.429 614.273 305.19V412.992C614.273 439.754 592.698 461.301 565.9 461.301H409.087H408.587V461.801V618.237C408.587 644.997 386.837 666.546 360.214 666.546H254.558C227.762 666.546 206.186 644.824 206.186 618.237V461.801V461.301H205.686H48.8724C22.0747 461.301 0.5 439.754 0.5 412.992V305.19C0.5 278.606 22.0736 257.057 48.8724 257.057H205.51Z" stroke="#3670C7" stroke-opacity="0.4"/>
</svg>
