<svg width="500" height="493" viewBox="0 0 500 493" fill="none" xmlns="http://www.w3.org/2000/svg">
<path d="M243.334 447.779L209.23 413.665C82.7499 301.797 0 226.399 0 133.893C0 58.3926 58.3755 0 133.854 0C175.229 0 216.604 19.4642 243.334 51.1191C270.064 19.4642 311.439 0 352.814 0C428.292 0 486.668 58.3926 486.668 133.893C486.668 226.399 403.918 301.797 277.437 413.768L243.334 447.779Z" fill="#3670C7" fill-opacity="0.1"/>
<path d="M222.916 457.756L222.905 457.745L222.893 457.735C159.645 401.794 107.37 355.005 70.9033 310.645C34.4418 266.293 13.832 224.427 13.832 178.337C13.832 103.113 71.9838 44.9443 147.186 44.9443C188.412 44.9443 229.648 64.342 256.284 95.886L256.666 96.3384L257.048 95.886C283.684 64.342 324.92 44.9443 366.146 44.9443C441.348 44.9443 499.5 103.113 499.5 178.337C499.5 224.427 478.89 266.293 442.428 310.658C405.961 355.03 353.687 401.845 290.438 457.838L290.427 457.847L290.416 457.858L256.666 491.516L222.916 457.756Z" stroke="#3670C7" stroke-opacity="0.4"/>
</svg>
