<svg width="578" height="193" viewBox="0 0 578 193" fill="none" xmlns="http://www.w3.org/2000/svg">
<path d="M0.75293 66.9501V82.6677H82.8926V66.9501H54.48V64.003H81.0034V52.6682H54.48V51.0813L55.0089 50.9302C58.5605 49.7211 61.8098 48.2098 64.9836 46.1696L65.3614 45.9429L65.7392 46.1696C69.6686 48.5121 73.6736 50.1745 77.5274 51.1569L81.0034 52.0637V51.9881L81.9102 52.2148C82.3636 52.2904 82.817 52.3659 83.2704 52.4415V33.3235C81.6835 33.3235 80.1722 33.1723 78.7365 32.9456L77.6785 32.7945L78.2075 31.8121C80.6256 27.3538 82.2125 22.3665 83.0437 16.8502V0.981445H48.5103V16.2457H65.8148L65.5881 17.1524C65.1347 19.6461 64.5302 21.6108 64.0012 23.1221L63.5478 24.7846L62.7166 23.2732C61.9609 22.0642 61.432 20.7796 61.0541 19.2683H46.0166L46.6967 21.9131C47.6791 25.5402 49.1904 28.9407 51.3818 32.4922L51.9863 33.5501L50.7772 33.6257C50.0972 33.7013 49.3415 33.7768 48.5103 33.7768V47.4542H45.261V37.6307H41.7094V34.0791H45.261V16.4724H41.7094V12.9208H45.261V0.981445H2.5665V49.57H29.09V52.5926H2.5665V63.9275H29.09V66.8745H0.75293V66.9501ZM23.347 12.9208H30.2234V17.0769H23.347V12.9208ZM23.347 23.1977H30.2234V27.3538H23.347V23.1977ZM23.347 37.7062V33.6257H30.2234V37.7062H23.347Z" fill="#222222"/>
<path d="M134.955 0.82666V82.5129H172.964V0.82666H134.955ZM156.113 62.1858H151.882V21.7583H156.113V62.1858Z" fill="#222222"/>
<path d="M116.519 70.4256L131.859 81.3826V55.8415L128.005 53.499L128.156 52.8944C131.179 44.8845 131.783 37.4791 131.783 32.5673V3.55021H114.327V2.79456C114.327 2.2656 114.327 1.66108 114.403 1.13212C114.403 0.905423 114.403 0.678727 114.403 0.376465H94.9072C94.9072 0.603161 94.9072 0.905423 94.9072 1.13212C94.9072 1.66108 94.8316 2.19004 94.8316 2.71899V3.47465H91.1289V25.7665H94.5293V26.5221C94.0004 38.9148 93.018 43.9022 91.4312 52.0632L97.4764 56.446L95.8895 56.8238C94.1515 57.2772 92.6402 57.5795 91.1289 57.8062V83.574C101.179 80.8537 109.567 76.4709 116.065 70.6523L116.519 70.4256ZM115.688 29.7714C115.688 34.9854 114.932 39.3682 113.27 43.2221L112.967 44.0533L110.398 42.542L110.474 42.013C111.078 38.6126 111.532 34.6832 111.909 26.5977V25.842H115.688V29.7714Z" fill="#222222"/>
<path d="M224.962 33.0253V45.7959H239.395V33.0253H237.43V29.3226H239.395V18.2901H237.43V14.7385H239.395V1.43896H224.962V14.7385H226.927V18.2901H224.962V29.3226H226.927V33.0253H224.962Z" fill="#222222"/>
<path d="M263.572 1.43896H242.565V60.0777C242.565 61.0601 241.96 61.6646 240.902 61.6646H233.95V83.2763H250.65C259.34 83.2763 263.572 78.9691 263.572 70.0524V1.43896Z" fill="#222222"/>
<path d="M203.728 1.43896H182.796V83.2008H203.728V1.43896Z" fill="#222222"/>
<path d="M221.791 14.7385V1.43896H206.905V14.7385H209.021V18.2901H206.905V29.3226H209.021V33.0253H206.905V45.7959H221.791V33.0253H219.826V29.3226H221.791V18.2901H219.826V14.7385H221.791Z" fill="#222222"/>
<path d="M355.462 44.4325H328.712V31.0574H353.724V9.52125H328.712V0H305.362V9.52125H299.468L299.544 8.69002C299.846 6.04523 300.073 3.47601 300.073 1.28461H276.95C276.799 12.0905 272.945 31.5108 270.678 40.2008H293.574C294.179 38.085 294.859 35.2135 295.614 31.9642L295.841 31.0574H305.362V44.4325H272.113V66.0442H305.362V83.122H328.712V65.9686H355.462V44.4325Z" fill="#222222"/>
<path d="M83.4998 172.821H67.8578V169.572H82.3663V153.854H31.3597V150.907H82.2908V109.346H32.6443V113.125H25.7678V109.12H6.19637V113.125H0V133.452H6.19637V142.142L5.21402 142.217C3.40044 142.444 1.66244 142.595 0 142.595V164.962H0.0755654C1.66244 164.887 3.40044 164.811 5.28958 164.66L6.1208 164.585V167.607C6.1208 169.119 4.98732 170.252 3.47601 170.252H1.05792V191.939H15.1887C21.0828 191.939 25.7678 186.876 25.7678 180.378V161.789L26.3723 161.638C28.2615 161.26 30.075 160.882 31.6619 160.58L32.5687 160.353V169.496H45.9438V172.746H31.4352V188.086H46.0194V191.713H67.7822V188.161H83.4242V172.821H83.4998ZM54.3316 120.832H61.1324V125.215H54.3316V120.832ZM54.3316 134.661H61.1324V138.968H54.3316V134.661ZM25.7678 139.044V133.527H32.6443V137.003L32.1153 137.154C30.6796 137.683 28.9416 138.212 26.7502 138.817L25.7678 139.044Z" fill="#222222"/>
<path d="M172.513 154.232H174.175V133.754H152.941V130.278H174.175V109.649H153.395V124.082H150.599V111.009H136.468L136.922 109.12H120.675L120.297 111.009H116.141V121.059H118.332L117.577 124.006H114.327V133.149H106.922L107.753 131.94C110.776 127.482 113.118 121.739 114.705 114.787L115.612 110.933L115.763 110.102C115.839 109.8 115.914 109.497 115.914 109.12H97.2497C97.023 113.88 94.3026 118.641 91.2045 120.001V143.653C92.4891 143.426 93.8493 143.049 95.3606 142.52L96.9474 141.915L96.2674 143.577C95.0583 146.6 93.3203 148.565 91.1289 149.547V171.234C91.8846 171.008 92.6402 170.781 93.3203 170.479L94.3782 170.025V191.939H111.532V189.597H127.174V192.317H147.879V189.597H152.715V191.788H160.574C166.543 191.788 172.513 187.632 172.513 178.413V154.232ZM130.725 120.454H135.184V124.082H129.97L130.725 120.454ZM130.272 175.088H126.04V170.932H130.272V175.088ZM134.881 153.174H130.574V149.094H134.881V153.174ZM155.586 167.985C155.586 169.27 154.831 170.101 153.773 170.101H152.79V175.088H147.954V172.066H150.599V164.207H147.954V161.033H150.599V141.159H115.008V161.033H127.249V164.207H115.008V175.088H111.607V156.499H108.433L109.113 155.366C110.927 152.192 112.438 148.716 113.572 145.013L115.008 140.253C115.083 140.026 115.083 139.799 115.159 139.572C115.234 139.27 115.31 138.968 115.385 138.741L115.461 138.137H153.47V154.232H155.662V167.985H155.586Z" fill="#222222"/>
<path d="M184.228 150.223V191.028H261.984V150.223H184.228ZM240.297 172.893H206.142V168.586H240.297V172.893Z" fill="#222222"/>
<path d="M181.888 126.044V146.749H216.195C225.489 146.749 233.424 145.918 239.847 144.331L240.603 144.18L241.283 146.749H265.086L257.227 115.39H233.424L235.54 123.853L234.784 124.004C229.494 125.364 223.6 126.044 216.195 126.044H213.701L221.787 109.193H195.112L187.48 126.044H181.888Z" fill="#222222"/>
<path d="M354.784 170.555H315.565V167.532H354.784V152.344H350.854V149.321H355.993L355.464 139.422H350.93V136.399H355.388L354.104 122.344H348.814L355.69 113.654H346.018L350.401 109.12H338.462L334.532 112.823V116.45H315.112V122.193H334.532V122.797H338.235L334.23 127.407V136.399H339.066V139.422H334.608C334.608 143.88 334.457 147.13 334.079 149.321H339.066V152.344H310.2V149.321H314.734L313.978 139.422H310.2V136.399H315.263L313.752 122.344H308.915L313.676 116.45L315.187 114.636V114.712L316.094 113.654H305.742L309.973 109.12H297.807L293.802 112.823V122.797H297.354L293.802 126.576V136.399H298.261V139.422H293.802C293.802 143.956 293.576 147.205 293.273 149.321H298.261V152.344H293.349V158.691H334.154V161.714H293.651V176.676H334.154V178.187C334.154 179.169 333.55 179.774 332.492 179.774H293.651V191.94H345.187C351.383 191.94 354.935 188.539 354.935 182.57V170.555H354.784ZM347.756 122.042L348.134 127.331H343.222L347.756 122.042ZM302.341 127.331L307.026 122.117L307.404 127.331H302.341Z" fill="#222222"/>
<path d="M317.072 139.346V149.245H332.034V139.346H317.072ZM326.518 146.449H322.362V142.671H326.518V146.449Z" fill="#222222"/>
<path d="M332.034 109.12H317.072V113.125H332.034V109.12Z" fill="#222222"/>
<path d="M332.034 132.321H317.072V136.326H332.034V132.321Z" fill="#222222"/>
<path d="M332.034 125.215H317.072V129.22H332.034V125.215Z" fill="#222222"/>
<path d="M273.399 158.009C273.323 162.921 272.416 184.532 271.283 191.484H288.889C290.023 186.497 290.93 171.686 291.005 158.009H273.399Z" fill="#222222"/>
<path d="M290.706 155.367V135.266L272.419 132.697V152.722L290.706 155.367Z" fill="#222222"/>
<path d="M290.706 132.242V112.217L272.419 109.497V129.597L290.706 132.242Z" fill="#222222"/>
<path d="M445.761 191.939V167.003C438.054 166.172 432.991 163.98 430.724 160.353L429.968 159.22H445.61V138.59H416.971V134.358H442.436V113.578H416.971V109.12H392.034V113.578H366.493V134.358H392.034V138.59H363.319V159.22H379.49L378.584 160.429C376.014 163.905 370.574 166.172 363.319 167.003V191.939C374.427 190.73 383.646 185.138 390.674 175.391L392.034 173.501V191.864H416.971V173.275L418.331 175.239C425.359 185.214 434.502 190.806 445.761 191.939Z" fill="#222222"/>
<path d="M536.814 191.788V167.91C529.484 167.229 521.927 166.323 515.277 164.056L513.539 163.451L515.202 162.696C517.696 161.486 520.038 159.9 521.927 158.086L522.456 157.557L522.985 158.086C526.31 161.411 530.768 163.829 536.133 165.114V143.426C533.035 141.839 531.373 140.177 531.071 136.248C531.146 135.341 531.146 134.434 531.146 133.527V132.772H536.889V111.916H508.401V109.12H483.54V111.916H453.843V132.772H461.097V133.527C460.946 138.59 458.981 141.613 454.75 143.2V165.114C460.19 163.905 464.8 161.486 468.427 158.086L468.956 157.557L469.485 158.086C471.45 159.975 473.414 161.411 475.53 162.469L477.041 163.224L475.454 163.829C469.938 165.794 463.515 167.078 453.918 167.91V191.788C465.026 190.957 474.623 188.161 482.406 183.627L483.54 182.947V191.939H508.401V183.552L509.534 184.156C517.015 188.388 526.234 190.957 536.814 191.788ZM483.464 143.88L482.482 143.577C479.233 142.52 477.721 140.404 477.419 136.323C477.495 135.341 477.495 134.434 477.495 133.527V132.772H483.464V143.88ZM508.325 143.88V132.772H514.597V133.527C514.522 139.119 513.162 141.613 509.459 143.351L508.325 143.88Z" fill="#222222"/>
<path d="M576.039 171.837H551.48V192.769H576.039V171.837Z" fill="#222222"/>
<path d="M578 109.193H549.739V134.81L555.028 168.739H572.635L578 134.659V109.193Z" fill="#222222"/>
</svg>
