<svg width="41" height="56" viewBox="0 0 41 56" fill="none" xmlns="http://www.w3.org/2000/svg">
<path d="M10.9105 6.48797C11.7244 5.82248 14.3508 7.4866 16.2005 8.9297C18.0501 10.3728 18.7156 11.0754 19.5667 10.9641C20.4177 10.8528 23.5249 9.04022 26.5587 8.70787C29.5925 8.37553 32.5513 10.0026 33.7355 11.2972C34.9197 12.5919 35.0689 13.2493 35.4004 13.6277C36.0482 14.3674 36.4838 14.3165 37.0654 15.366C37.7309 16.5679 37.4937 17.8158 37.9035 18.5966C38.6682 20.0518 40.7147 21.9015 39.3095 24.7619C38.2568 26.9044 35.6594 27.586 35.2157 25.9953C34.7721 24.4045 35.1415 22.2467 36.0046 21.6305C36.7629 21.0884 37.3485 23.0857 35.9062 25.675C34.4639 28.2644 33.3653 29.2001 30.9985 29.6083C28.2116 30.089 26.4482 29.793 24.2662 28.7201C22.0834 27.6473 21.3066 26.5373 20.5298 25.354C19.753 24.1698 20.308 23.8746 18.6801 22.5057C17.0523 21.1368 13.8507 18.1013 12.9093 14.8481C11.8534 11.2045 10.1385 7.11958 10.9105 6.48797Z" stroke="#3670C7" stroke-width="1.5" stroke-miterlimit="10"/>
<path d="M30.9968 29.6093C30.9968 29.6093 31.7365 34.1596 29.11 35.7503C26.4836 37.3411 17.5313 33.3086 19.4915 31.9768C21.4517 30.645 30.2192 37.3411 33.253 39.7086C36.2868 42.0761 37.7694 45.2737 37.3589 46.5151C36.6748 48.5866 38.7487 49.5675 36.286 51.8423C32.402 55.4303 24.2136 55.1221 15.7793 54.6785C5.05483 54.1138 10.144 52.2496 7.88779 50.4363C5.63158 48.6237 2.43724 45.4052 1.36439 42.1866C0.29154 38.9681 1.80805 35.1946 3.06643 32.6423C4.3248 30.0901 6.65442 27.2781 8.35646 25.8358C10.0585 24.3935 14.3676 20.3054 14.5532 18.1226" stroke="#3670C7" stroke-width="1.5" stroke-miterlimit="10"/>
<path d="M8.32666 50.917C8.32666 50.917 9.63989 53.9379 15.7809 54.6776" stroke="#3670C7" stroke-width="1.5" stroke-miterlimit="10"/>
<path d="M23.3763 9.44793C23.3763 9.44793 23.4013 8.28877 23.7466 7.67248C24.0918 7.0562 23.2537 5.69941 22.7851 4.61446C22.3164 3.52951 22.5632 2.07431 22.5874 1.67986C22.6124 1.28541 22.6858 0.989364 23.0803 0.940158C23.4748 0.890952 24.6831 3.4311 25.7189 4.39263C26.7546 5.35416 28.7027 7.45065 28.9745 8.83164" stroke="#3670C7" stroke-width="1.5" stroke-miterlimit="10"/>
</svg>
