<svg width="750" height="539" viewBox="0 0 750 539" fill="none" xmlns="http://www.w3.org/2000/svg">
<path d="M669.949 367.065L669.443 367.26L669.678 367.748C679.62 388.42 681.382 412.712 672.325 435.654C655.132 479.208 605.838 500.429 562.265 483.229C527.737 469.599 507.082 436.5 508.683 400.836L508.699 400.479L508.367 400.348L208.32 281.905L207.988 281.774L207.756 282.045C184.564 309.187 146.87 319.251 112.44 305.66C68.8664 288.459 47.381 239.523 64.5737 195.97C73.6308 173.026 91.5887 156.293 112.928 148.085L113.436 147.89L113.199 147.4C103.22 126.829 101.534 102.342 110.591 79.398C127.784 35.8437 177.078 14.6232 220.553 31.7848C254.984 45.3765 275.736 78.5138 274.135 114.178L274.119 114.534L274.451 114.665L574.498 233.109L574.83 233.24L575.062 232.968C598.291 205.73 636.044 195.8 670.476 209.392C714.049 226.593 735.535 275.529 718.342 319.082C709.246 342.124 691.288 358.857 669.949 367.065Z" stroke="#3670C7" stroke-opacity="0.4"/>
<path d="M637.212 390.814C658.677 382.558 676.742 365.726 685.891 342.548C703.186 298.736 681.571 249.511 637.743 232.209C603.111 218.538 565.132 228.527 541.765 255.926L241.719 137.482C243.329 101.608 222.452 68.273 187.82 54.602C144.09 37.3394 94.5045 58.6842 77.2096 102.497C68.0988 125.576 69.7955 150.209 79.8327 170.901C58.3684 179.157 40.3033 195.989 31.1926 219.069C13.8976 262.881 35.5124 312.106 79.3405 329.407C113.973 343.078 151.892 332.953 175.221 305.652L475.267 424.096C473.657 459.97 494.436 493.267 529.166 506.976C572.994 524.277 622.579 502.933 639.874 459.12C648.985 436.04 647.211 411.603 637.212 390.814Z" fill="#3670C7" fill-opacity="0.1"/>
</svg>
